<?xml version="1.0" encoding="utf-8"?>
<!-- Generator: Adobe Illustrator 15.0.0, SVG Export Plug-In . SVG Version: 6.00 Build 0)  -->
<!DOCTYPE svg PUBLIC "-//W3C//DTD SVG 1.1//EN" "http://www.w3.org/Graphics/SVG/1.1/DTD/svg11.dtd">
<svg version="1.1" id="Layer_1" xmlns="http://www.w3.org/2000/svg" xmlns:xlink="http://www.w3.org/1999/xlink" x="0px" y="0px"
	 width="48px" height="288px" viewBox="0 0 48 288" enable-background="new 0 0 48 288" xml:space="preserve">
<g>
	<path opacity="0.8" fill-rule="evenodd" clip-rule="evenodd" fill="#505050" d="M24,5c10.494,0,19,8.506,19,19s-8.506,19-19,19
		C13.507,43,5,34.494,5,24S13.507,5,24,5z"/>
	<circle fill="#8A8A8A" cx="24" cy="24" r="8"/>
</g>
<g>
	<path opacity="0.8" fill-rule="evenodd" clip-rule="evenodd" fill="#505050" d="M24,53c10.494,0,19,8.506,19,19
		c0,10.494-8.506,19-19,19C13.507,91,5,82.494,5,72C5,61.506,13.507,53,24,53z"/>
	<circle fill="#8A8A8A" cx="24" cy="72" r="8"/>
	<path opacity="0.2" fill="#FAFAFA" d="M24,49C11.318,49,1,59.318,1,72c0,12.683,10.317,23,23,23c12.683,0,23-10.317,23-23
		C47,59.318,36.683,49,24,49L24,49z"/>
</g>
<g opacity="0.5">
	<path opacity="0.8" fill-rule="evenodd" clip-rule="evenodd" fill="#505050" d="M24,101c10.494,0,19,8.506,19,19s-8.506,19-19,19
		c-10.493,0-19-8.506-19-19S13.507,101,24,101z"/>
	<circle fill="#8A8A8A" cx="24" cy="120" r="8"/>
</g>
<g>
	<path opacity="0.8" fill-rule="evenodd" clip-rule="evenodd" fill="#505050" d="M24,149c10.494,0,19,8.506,19,19s-8.506,19-19,19
		c-10.493,0-19-8.506-19-19S13.507,149,24,149z"/>
	<circle fill="#00EEF1" cx="24" cy="168" r="8"/>
</g>
<g>
	<path opacity="0.8" fill-rule="evenodd" clip-rule="evenodd" fill="#505050" d="M24,197c10.494,0,19,8.506,19,19s-8.506,19-19,19
		c-10.493,0-19-8.506-19-19S13.507,197,24,197z"/>
	<circle fill="#00EEF1" cx="24" cy="216" r="8"/>
	<path opacity="0.2" fill="#FAFAFA" d="M24,193c-12.682,0-23,10.318-23,23c0,12.683,10.318,23,23,23c12.682,0,23-10.317,23-23
		C47,203.318,36.682,193,24,193L24,193z"/>
</g>
<g opacity="0.5">
	<path opacity="0.8" fill-rule="evenodd" clip-rule="evenodd" fill="#505050" d="M24,245c10.494,0,19,8.506,19,19s-8.506,19-19,19
		c-10.493,0-19-8.506-19-19S13.507,245,24,245z"/>
	<circle fill="#00EEF1" cx="24" cy="264" r="8"/>
</g>
</svg>
