<?xml version="1.0" encoding="utf-8"?>
<!-- Generator: Adobe Illustrator 15.0.0, SVG Export Plug-In . SVG Version: 6.00 Build 0)  -->
<!DOCTYPE svg PUBLIC "-//W3C//DTD SVG 1.1//EN" "http://www.w3.org/Graphics/SVG/1.1/DTD/svg11.dtd">
<svg version="1.1" id="Layer_4" xmlns="http://www.w3.org/2000/svg" xmlns:xlink="http://www.w3.org/1999/xlink" x="0px" y="0px"
	 width="68px" height="204px" viewBox="0 0 68 204" enable-background="new 0 0 68 204" xml:space="preserve">
<g>
	<circle opacity="0.1" fill="#969696" cx="34" cy="34" r="34"/>
	<g>
		<path fill="#FAFAFA" d="M48.133,46.718c0.396,0.396,0.4,1.033,0.01,1.424l-0.001,0c-0.391,0.391-1.027,0.386-1.423-0.01
			L19.868,21.282c-0.396-0.396-0.401-1.033-0.01-1.423l0.001,0c0.39-0.391,1.027-0.386,1.423,0.01L48.133,46.718z"/>
		<path fill="#FAFAFA" d="M19.867,46.718c-0.396,0.396-0.4,1.033-0.01,1.424l0.001,0c0.391,0.391,1.027,0.386,1.423-0.01
			l26.851-26.851c0.396-0.396,0.401-1.033,0.011-1.423l-0.001,0c-0.391-0.391-1.027-0.386-1.424,0.01L19.867,46.718z"/>
	</g>
	<path fill="#969696" enable-background="new    " d="M34,0C15.221,0,0,15.221,0,34s15.222,34,34,34c18.779,0,34-15.221,34-34
		C68.002,15.221,52.777,0,34,0z M33.999,66C16.326,66,2,51.673,2,34C2,16.327,16.325,2,33.999,2C51.673,2,66,16.327,66,34
		C66,51.673,51.673,66,33.999,66z"/>
</g>
<g>
	<circle opacity="0.1" fill="#969696" cx="34" cy="102" r="34"/>
	<g opacity="0.8">
		<path fill="#FAFAFA" d="M48.133,114.719c0.396,0.396,0.4,1.033,0.01,1.424h-0.001c-0.391,0.391-1.027,0.387-1.423-0.01
			L19.868,89.282c-0.396-0.396-0.401-1.033-0.01-1.423l0.001,0c0.39-0.391,1.027-0.386,1.423,0.01L48.133,114.719z"/>
		<path fill="#FAFAFA" d="M19.867,114.719c-0.396,0.396-0.4,1.033-0.01,1.424h0.001c0.391,0.391,1.027,0.387,1.423-0.01
			l26.851-26.851c0.396-0.396,0.401-1.033,0.011-1.423l-0.001,0c-0.391-0.391-1.027-0.386-1.424,0.01L19.867,114.719z"/>
	</g>
	<path fill="#969696" enable-background="new    " d="M34,68C15.221,68,0,83.221,0,102c0,18.779,15.222,34,34,34
		c18.779,0,34-15.221,34-34C68.002,83.221,52.777,68,34,68z M33.999,134C16.326,134,2,119.673,2,102c0-17.673,14.325-32,31.999-32
		C51.673,70,66,84.327,66,102C66,119.673,51.673,134,33.999,134z"/>
	<circle opacity="0.45" fill="#FAFAFA" cx="34" cy="102" r="34"/>
</g>
<g opacity="0.4">
	<circle opacity="0.1" fill="#969696" cx="34" cy="170" r="34"/>
	<g>
		<path fill="#FAFAFA" d="M48.133,182.719c0.396,0.396,0.4,1.033,0.01,1.424h-0.001c-0.391,0.391-1.027,0.387-1.423-0.01
			l-26.851-26.852c-0.396-0.396-0.401-1.032-0.01-1.423l0.001-0.001c0.39-0.391,1.027-0.386,1.423,0.01L48.133,182.719z"/>
		<path fill="#FAFAFA" d="M19.867,182.719c-0.396,0.396-0.4,1.033-0.01,1.424h0.001c0.391,0.391,1.027,0.387,1.423-0.01
			l26.851-26.852c0.396-0.396,0.401-1.032,0.011-1.423l-0.001-0.001c-0.391-0.391-1.027-0.386-1.424,0.01L19.867,182.719z"/>
	</g>
	<path fill="#969696" enable-background="new    " d="M34,136c-18.779,0-34,15.221-34,34s15.222,34,34,34c18.779,0,34-15.221,34-34
		C68.002,151.221,52.777,136,34,136z M33.999,202C16.326,202,2,187.673,2,170s14.325-32,31.999-32C51.673,138,66,152.327,66,170
		S51.673,202,33.999,202z"/>
</g>
</svg>
