<?xml version="1.0" encoding="utf-8"?>
<!-- Generator: Adobe Illustrator 15.0.0, SVG Export Plug-In . SVG Version: 6.00 Build 0)  -->
<!DOCTYPE svg PUBLIC "-//W3C//DTD SVG 1.1//EN" "http://www.w3.org/Graphics/SVG/1.1/DTD/svg11.dtd">
<svg version="1.1" id="Layer_4" xmlns="http://www.w3.org/2000/svg" xmlns:xlink="http://www.w3.org/1999/xlink" x="0px" y="0px"
	 width="68px" height="204px" viewBox="0 0 68 204" enable-background="new 0 0 68 204" xml:space="preserve">
<g>
	<circle opacity="0.1" fill="#969696" cx="34" cy="34" r="34"/>
	<path fill="#969696" enable-background="new    " d="M34,0C15.221,0,0,15.221,0,34s15.222,34,34,34c18.779,0,34-15.221,34-34
		C68.002,15.221,52.777,0,34,0z M33.999,66C16.326,66,2,51.673,2,34C2,16.327,16.325,2,33.999,2C51.673,2,66,16.327,66,34
		C66,51.673,51.673,66,33.999,66z"/>
	<path fill="#FAFAFA" d="M54.643,19.858L54.643,19.858c-0.392-0.391-1.028-0.387-1.425,0.009L27.5,45.585L14.782,32.868
		c-0.396-0.396-1.033-0.4-1.423-0.01l-0.001,0c-0.391,0.391-0.386,1.027,0.01,1.423L26.086,47l1.414,1.414L28.914,47l25.718-25.718
		C55.028,20.886,55.033,20.249,54.643,19.858z"/>
</g>
<g>
	<circle opacity="0.1" fill="#969696" cx="34" cy="102" r="34"/>
	<path opacity="0.8" fill="#FAFAFA" d="M54.643,87.858L54.643,87.858c-0.392-0.391-1.028-0.387-1.425,0.009L27.5,113.586
		l-12.718-12.718c-0.396-0.396-1.033-0.4-1.423-0.01l-0.001,0c-0.391,0.391-0.386,1.027,0.01,1.423L26.086,115l1.414,1.414
		L28.914,115l25.718-25.718C55.028,88.886,55.033,88.249,54.643,87.858z"/>
	<path fill="#969696" enable-background="new    " d="M34,68C15.221,68,0,83.221,0,102c0,18.779,15.222,34,34,34
		c18.779,0,34-15.221,34-34C68.002,83.221,52.777,68,34,68z M33.999,134C16.326,134,2,119.673,2,102c0-17.673,14.325-32,31.999-32
		C51.673,70,66,84.327,66,102C66,119.673,51.673,134,33.999,134z"/>
	<circle opacity="0.45" fill="#FAFAFA" cx="34" cy="102" r="34"/>
</g>
<g opacity="0.4">
	<circle opacity="0.1" fill="#969696" cx="34" cy="170" r="34"/>
	<path fill="#969696" enable-background="new    " d="M34,136c-18.779,0-34,15.221-34,34s15.222,34,34,34c18.779,0,34-15.221,34-34
		C68.002,151.221,52.777,136,34,136z M33.999,202C16.326,202,2,187.673,2,170s14.325-32,31.999-32C51.673,138,66,152.327,66,170
		S51.673,202,33.999,202z"/>
	<path fill="#FAFAFA" d="M54.643,155.858L54.643,155.858c-0.392-0.392-1.028-0.387-1.425,0.009L27.5,181.586l-12.718-12.719
		c-0.396-0.396-1.033-0.4-1.423-0.01l-0.001,0.001c-0.391,0.391-0.386,1.027,0.01,1.423L26.086,183l1.414,1.414L28.914,183
		l25.718-25.719C55.028,156.886,55.033,156.249,54.643,155.858z"/>
</g>
</svg>
