<?xml version="1.0" encoding="utf-8"?>
<!-- Generator: Adobe Illustrator 15.0.0, SVG Export Plug-In . SVG Version: 6.00 Build 0)  -->
<!DOCTYPE svg PUBLIC "-//W3C//DTD SVG 1.1//EN" "http://www.w3.org/Graphics/SVG/1.1/DTD/svg11.dtd">
<svg version="1.1" id="Layer_4" xmlns="http://www.w3.org/2000/svg" xmlns:xlink="http://www.w3.org/1999/xlink" x="0px" y="0px"
	 width="68px" height="204px" viewBox="0 0 68 204" enable-background="new 0 0 68 204" xml:space="preserve">
<g>
	<circle fill="#474E57" cx="34" cy="34" r="34"/>
	<g>
		<path fill="#FAFAFA" d="M48.133,46.718c0.396,0.396,0.4,1.033,0.01,1.424l-0.001,0c-0.391,0.391-1.027,0.386-1.423-0.01
			L19.868,21.282c-0.396-0.396-0.401-1.033-0.01-1.423l0.001,0c0.39-0.391,1.027-0.386,1.423,0.01L48.133,46.718z"/>
		<path fill="#FAFAFA" d="M19.867,46.718c-0.396,0.396-0.4,1.033-0.01,1.424l0.001,0c0.391,0.391,1.027,0.386,1.423-0.01
			l26.851-26.851c0.396-0.396,0.401-1.033,0.011-1.423l-0.001,0c-0.391-0.391-1.027-0.386-1.424,0.01L19.867,46.718z"/>
	</g>
</g>
<g>
	<circle fill="#474E57" cx="34" cy="102" r="34"/>
	<g opacity="0.8">
		<path fill="#FAFAFA" d="M48.133,114.719c0.396,0.396,0.4,1.033,0.01,1.424h-0.001c-0.391,0.391-1.027,0.387-1.423-0.01
			L19.868,89.282c-0.396-0.396-0.401-1.033-0.01-1.423l0.001,0c0.39-0.391,1.027-0.386,1.423,0.01L48.133,114.719z"/>
		<path fill="#FAFAFA" d="M19.867,114.719c-0.396,0.396-0.4,1.033-0.01,1.424h0.001c0.391,0.391,1.027,0.387,1.423-0.01
			l26.851-26.851c0.396-0.396,0.401-1.033,0.011-1.423l-0.001,0c-0.391-0.391-1.027-0.386-1.424,0.01L19.867,114.719z"/>
	</g>
	<circle opacity="0.2" fill="#FAFAFA" cx="34" cy="102" r="34"/>
</g>
<g opacity="0.4">
	<circle fill="#474E57" cx="34" cy="170" r="34"/>
	<g>
		<path fill="#FAFAFA" d="M48.133,182.719c0.396,0.396,0.4,1.033,0.01,1.424h-0.001c-0.391,0.391-1.027,0.387-1.423-0.01
			l-26.851-26.852c-0.396-0.396-0.401-1.032-0.01-1.423l0.001-0.001c0.39-0.391,1.027-0.386,1.423,0.01L48.133,182.719z"/>
		<path fill="#FAFAFA" d="M19.867,182.719c-0.396,0.396-0.4,1.033-0.01,1.424h0.001c0.391,0.391,1.027,0.387,1.423-0.01
			l26.851-26.852c0.396-0.396,0.401-1.032,0.011-1.423l-0.001-0.001c-0.391-0.391-1.027-0.386-1.424,0.01L19.867,182.719z"/>
	</g>
</g>
</svg>
