<?xml version="1.0" encoding="utf-8"?>
<!-- Generator: Adobe Illustrator 15.0.0, SVG Export Plug-In . SVG Version: 6.00 Build 0)  -->
<!DOCTYPE svg PUBLIC "-//W3C//DTD SVG 1.1//EN" "http://www.w3.org/Graphics/SVG/1.1/DTD/svg11.dtd">
<svg version="1.1" id="Layer_4" xmlns="http://www.w3.org/2000/svg" xmlns:xlink="http://www.w3.org/1999/xlink" x="0px" y="0px"
	 width="68px" height="204px" viewBox="0 0 68 204" enable-background="new 0 0 68 204" xml:space="preserve">
<g>
	<circle fill="#474E57" cx="34" cy="34" r="34"/>
	<path fill="#FAFAFA" d="M54.643,19.858L54.643,19.858c-0.392-0.391-1.028-0.387-1.425,0.009L27.5,45.585L14.782,32.868
		c-0.396-0.396-1.033-0.4-1.423-0.01l-0.001,0c-0.391,0.391-0.386,1.027,0.01,1.423L26.086,47l1.414,1.414L28.914,47l25.718-25.718
		C55.028,20.886,55.033,20.249,54.643,19.858z"/>
</g>
<g>
	<circle fill="#474E57" cx="34" cy="102" r="34"/>
	<path opacity="0.8" fill="#FAFAFA" d="M54.643,87.858L54.643,87.858c-0.392-0.391-1.028-0.387-1.425,0.009L27.5,113.586
		l-12.718-12.718c-0.396-0.396-1.033-0.4-1.423-0.01l-0.001,0c-0.391,0.391-0.386,1.027,0.01,1.423L26.086,115l1.414,1.414
		L28.914,115l25.718-25.718C55.028,88.886,55.033,88.249,54.643,87.858z"/>
	<circle opacity="0.2" fill="#FAFAFA" cx="34" cy="102" r="34"/>
</g>
<g opacity="0.4">
	<circle fill="#474E57" cx="34" cy="170" r="34"/>
	<path fill="#FAFAFA" d="M54.643,155.858L54.643,155.858c-0.392-0.392-1.028-0.387-1.425,0.009L27.5,181.586l-12.718-12.719
		c-0.396-0.396-1.033-0.4-1.423-0.01l-0.001,0.001c-0.391,0.391-0.386,1.027,0.01,1.423L26.086,183l1.414,1.414L28.914,183
		l25.718-25.719C55.028,156.886,55.033,156.249,54.643,155.858z"/>
</g>
</svg>
